<?xml version="1.0" standalone="no"?>
<!DOCTYPE svg PUBLIC "-//W3C//DTD SVG 20010904//EN"
 "http://www.w3.org/TR/2001/REC-SVG-20010904/DTD/svg10.dtd">
<svg version="1.0" xmlns="http://www.w3.org/2000/svg"
 width="1280.000000pt" height="1280.000000pt" viewBox="0 0 1280.000000 1280.000000"
 preserveAspectRatio="xMidYMid meet">
<metadata>
Created by potrace 1.14, written by Peter Selinger 2001-2017
</metadata>
<g transform="translate(0.000000,1280.000000) scale(0.100000,-0.100000)"
fill="#000000" stroke="none">
<path d="M0 6400 l0 -6400 6400 0 6400 0 0 6400 0 6400 -6400 0 -6400 0 0
-6400z m6585 5170 c179 -18 330 -59 479 -132 225 -110 387 -250 535 -462 155
-222 219 -459 208 -766 -13 -356 -121 -604 -377 -860 -204 -205 -426 -323
-715 -380 -126 -25 -379 -27 -511 -5 -349 60 -666 253 -868 529 -179 244 -247
454 -247 766 0 311 72 538 243 765 294 390 764 594 1253 545z m410 -3129 c767
-83 1393 -349 1815 -771 295 -293 461 -619 528 -1030 13 -83 16 -373 19 -2287
l4 -2193 -1151 0 -1150 0 0 420 c0 430 -1 436 -36 412 -6 -4 -32 -40 -58 -79
-125 -194 -341 -412 -522 -528 -189 -121 -435 -220 -652 -261 -372 -71 -817
-55 -1172 41 -467 126 -876 413 -1122 786 -203 308 -289 607 -289 1009 0 623
231 1073 728 1419 327 229 732 372 1353 481 69 12 422 47 555 55 55 3 156 10
225 15 154 12 725 50 875 59 l110 6 3 169 c3 194 -7 249 -65 364 -98 197 -314
296 -638 294 -312 -3 -525 -83 -668 -251 -43 -50 -107 -179 -107 -214 0 -50
66 -47 -1036 -47 -563 0 -1024 3 -1024 8 0 4 9 77 20 162 61 485 244 867 569
1191 371 369 900 620 1531 725 302 51 480 63 880 60 201 -2 415 -9 475 -15z"/>
<path d="M6325 10721 c-224 -55 -365 -232 -365 -456 0 -138 50 -257 142 -340
109 -98 205 -135 349 -135 149 0 251 43 358 151 90 92 124 179 125 319 1 139
-33 229 -123 323 -67 70 -160 122 -253 141 -96 20 -144 19 -233 -3z"/>
<path d="M6835 4699 c-44 -4 -152 -13 -240 -18 -571 -36 -731 -59 -870 -126
-92 -44 -175 -119 -219 -199 -35 -62 -66 -182 -66 -252 0 -57 28 -157 60 -216
91 -168 332 -268 645 -268 449 0 796 211 892 542 21 74 23 99 23 314 l0 234
-72 -1 c-40 -1 -109 -5 -153 -10z"/>
</g>
</svg>
