<?xml version="1.0" standalone="no"?>
<!DOCTYPE svg PUBLIC "-//W3C//DTD SVG 20010904//EN"
 "http://www.w3.org/TR/2001/REC-SVG-20010904/DTD/svg10.dtd">
<svg version="1.0" xmlns="http://www.w3.org/2000/svg"
 width="500.000000pt" height="500.000000pt" viewBox="0 0 500.000000 500.000000"
 preserveAspectRatio="xMidYMid meet">
<metadata>
Created by potrace 1.14, written by Peter Selinger 2001-2017
</metadata>
<g transform="translate(0.000000,500.000000) scale(0.100000,-0.100000)"
fill="#000000" stroke="none">
<path d="M4393 3205 c-40 -19 -96 -72 -99 -94 0 -3 -4 -14 -9 -24 -9 -21 -1
-118 11 -140 48 -80 115 -112 225 -108 45 2 120 60 142 110 77 172 -98 338
-270 256z m137 -123 c16 -13 23 -29 22 -51 -2 -87 -131 -89 -140 -3 -6 61 68
95 118 54z"/>
<path d="M435 3031 c-230 -56 -349 -195 -340 -396 7 -139 93 -241 251 -296 50
-18 171 -45 289 -65 57 -10 114 -41 119 -66 20 -85 -57 -135 -188 -124 -72 6
-117 26 -146 64 -11 15 -23 32 -28 37 -8 9 -308 13 -316 4 -9 -9 15 -115 36
-157 48 -100 162 -177 306 -207 91 -19 293 -15 373 7 153 43 261 133 297 248
25 79 22 211 -5 270 -55 119 -181 184 -443 226 -19 3 -53 10 -75 15 -22 6 -50
13 -63 16 -12 3 -32 19 -43 35 -36 50 -8 106 64 126 91 25 210 -13 231 -74
l11 -31 158 0 c86 0 158 4 158 9 6 46 -14 128 -43 178 -28 48 -104 116 -156
140 -115 55 -317 73 -447 41z"/>
<path d="M1605 2762 c-1 -2 -20 -5 -41 -8 -156 -17 -296 -139 -346 -299 -30
-99 -27 -263 7 -357 9 -24 19 -51 22 -60 3 -10 9 -18 14 -18 5 0 9 -6 9 -12 0
-22 72 -94 126 -127 78 -47 179 -70 299 -67 110 3 149 12 244 59 106 54 173
145 203 278 18 76 17 224 -1 289 -49 172 -181 289 -356 315 -53 8 -174 12
-180 7z m144 -276 c64 -58 84 -234 39 -337 -29 -64 -67 -89 -126 -82 -43 5
-78 34 -99 83 -18 43 -25 172 -12 226 6 21 11 45 11 52 1 7 17 29 36 48 33 34
38 36 84 32 26 -3 57 -13 67 -22z"/>
<path d="M2797 2754 c-64 -16 -117 -56 -159 -121 l-37 -56 3 81 c1 45 0 83 -3
83 -3 1 -81 3 -172 3 l-166 2 1 -600 1 -601 170 -3 170 -2 -1 224 -1 224 29
-44 c63 -94 150 -136 270 -130 224 12 329 167 340 501 1 20 -13 111 -24 160
-30 134 -112 238 -214 270 -66 21 -148 24 -207 9z m25 -286 c92 -65 95 -274 6
-356 -18 -16 -38 -23 -75 -23 -61 -2 -91 16 -123 73 -33 57 -35 182 -5 243 40
79 133 109 197 63z"/>
<path d="M3836 2757 c-49 -12 -109 -71 -129 -128 -17 -48 -18 -46 -21 61 l-1
55 -167 1 c-113 0 -168 -3 -169 -10 -1 -6 -2 -212 -3 -458 l-1 -448 170 3 170
2 1 245 c1 149 6 261 13 286 25 93 117 134 244 110 l37 -7 0 141 c0 103 -3
142 -12 145 -27 10 -95 11 -132 2z"/>
<path d="M4417 2764 c-1 -1 -22 -5 -47 -9 -86 -12 -168 -47 -227 -99 -23 -19
-66 -82 -69 -98 -1 -5 -3 -10 -4 -13 -1 -3 -3 -9 -4 -14 0 -5 -4 -13 -8 -17
-5 -4 -8 -20 -8 -36 0 -15 3 -28 8 -29 4 -1 71 -2 150 -2 106 -2 142 1 142 10
0 14 58 59 71 56 5 -2 9 1 9 6 0 13 101 -7 120 -24 19 -17 31 -67 20 -84 -3
-6 -44 -13 -90 -16 -221 -15 -326 -44 -396 -107 -60 -54 -79 -101 -79 -193 0
-69 4 -86 27 -125 39 -67 107 -120 174 -136 16 -4 64 -8 108 -9 68 -2 87 2
135 25 31 15 69 44 86 64 16 20 32 36 35 36 3 0 5 -27 4 -60 l-1 -59 168 0
169 1 1 52 c3 243 -3 613 -10 645 -8 36 -38 90 -66 116 -35 34 -118 84 -145
88 -8 2 -19 5 -25 9 -21 12 -238 32 -248 22z m154 -566 c15 -23 -10 -93 -41
-120 -29 -23 -40 -26 -96 -25 -73 2 -95 17 -97 67 -3 57 50 81 188 86 22 1 43
-2 46 -8z"/>
</g>
</svg>
